<?xml version="1.0" encoding="UTF-8" standalone="no"?>
<svg width="150px" height="150px" viewBox="0 0 150 150" version="1.1" xmlns="http://www.w3.org/2000/svg" xmlns:xlink="http://www.w3.org/1999/xlink" xmlns:sketch="http://www.bohemiancoding.com/sketch/ns">
    <!-- Generator: Sketch 3.2.2 (9983) - http://www.bohemiancoding.com/sketch -->
    <title>Slice 1</title>
    <desc>Created with Sketch.</desc>
    <defs></defs>
    <g id="Page-1" stroke="none" stroke-width="1" fill="none" fill-rule="evenodd" sketch:type="MSPage">
        <g id="Oval-1-+-Rectangle-1-+-Rectangle-2" sketch:type="MSLayerGroup" fill="#FFFFFF">
            <path d="M75,150 C116.421356,150 150,116.421356 150,75 C150,33.5786438 116.421356,0 75,0 C33.5786438,0 0,33.5786438 0,75 C0,116.421356 33.5786438,150 75,150 Z M75,117.1875 C98.2995129,117.1875 117.1875,98.2995129 117.1875,75 C117.1875,51.7004871 98.2995129,32.8125 75,32.8125 C51.7004871,32.8125 32.8125,51.7004871 32.8125,75 C32.8125,98.2995129 51.7004871,117.1875 75,117.1875 Z" id="Oval-1" sketch:type="MSShapeGroup"></path>
            <rect id="Rectangle-1" sketch:type="MSShapeGroup" x="117.1875" y="0" width="32.8125" height="75"></rect>
            <rect id="Rectangle-2" sketch:type="MSShapeGroup" x="75" y="117.1875" width="75" height="32.8125"></rect>
        </g>
    </g>
</svg>